HIERARCHY
ROOT Hips
{
	OFFSET 0.000000 0.000000 0.000000
	CHANNELS 6 Xposition Yposition Zposition Xrotation Yrotation Zrotation
	JOINT Thigh.L
	{
		OFFSET 0.053859 0.031029 -0.091234
		CHANNELS 3 Xrotation Yrotation Zrotation
		JOINT Shin.L
		{
			OFFSET 0.052845 0.017146 -0.410960
			CHANNELS 3 Xrotation Yrotation Zrotation
			JOINT Foot.L
			{
				OFFSET -0.041250 0.033001 -0.430491
				CHANNELS 3 Xrotation Yrotation Zrotation
				JOINT Toe.L
				{
					OFFSET 0.044424 -0.118453 -0.063683
					CHANNELS 3 Xrotation Yrotation Zrotation
					End Site
					{
						OFFSET 0.000000 0.050000 0.000000
					}
				}
			}
		}
	}
	JOINT Thigh.R
	{
		OFFSET -0.059151 0.028620 -0.101341
		CHANNELS 3 Xrotation Yrotation Zrotation
		JOINT Shin.R
		{
			OFFSET -0.042296 0.022288 -0.394942
			CHANNELS 3 Xrotation Yrotation Zrotation
			JOINT Foot.R
			{
				OFFSET 0.015636 0.021587 -0.439394
				CHANNELS 3 Xrotation Yrotation Zrotation
				JOINT Toe.R
				{
					OFFSET -0.036862 -0.119194 -0.063684
					CHANNELS 3 Xrotation Yrotation Zrotation
					End Site
					{
						OFFSET 0.000000 0.050000 0.000000
					}
				}
			}
		}
	}
	JOINT Spine
	{
		OFFSET -0.001915 0.018487 0.107899
		CHANNELS 3 Xrotation Yrotation Zrotation
		JOINT Spine.2
		{
			OFFSET 0.006330 0.002180 0.132010
			CHANNELS 3 Xrotation Yrotation Zrotation
			JOINT Chest
			{
				OFFSET -0.010241 -0.022996 0.048569
				CHANNELS 3 Xrotation Yrotation Zrotation
				JOINT Neck
				{
					OFFSET -0.009109 0.029092 0.164046
					CHANNELS 3 Xrotation Yrotation Zrotation
					JOINT Head
					{
						OFFSET 0.021845 -0.023723 0.170664
						CHANNELS 3 Xrotation Yrotation Zrotation
						End Site
						{
							OFFSET 0.000000 0.050000 0.000000
						}
					}
				}
				JOINT Clavicle.L
				{
					OFFSET 0.042905 0.008603 0.083646
					CHANNELS 3 Xrotation Yrotation Zrotation
					JOINT UpperArm.L
					{
						OFFSET 0.104518 0.014524 0.061022
						CHANNELS 3 Xrotation Yrotation Zrotation
						JOINT ForeArm.L
						{
							OFFSET 0.263247 0.034606 -0.075605
							CHANNELS 3 Xrotation Yrotation Zrotation
							JOINT Hand.L
							{
								OFFSET 0.261289 0.006811 0.020841
								CHANNELS 3 Xrotation Yrotation Zrotation
								JOINT Thumb1.L
								{
									OFFSET 0.154580 0.003117 0.009538
									CHANNELS 3 Xrotation Yrotation Zrotation
									JOINT Thumb2.L
									{
										OFFSET 0.029895 0.000779 0.002385
										CHANNELS 3 Xrotation Yrotation Zrotation
										End Site
										{
											OFFSET 0.024912 0.000649 0.001987
										}
									}
								}
								JOINT Index1.L
								{
									OFFSET 0.137580 0.003117 0.009538
									CHANNELS 3 Xrotation Yrotation Zrotation
									JOINT Index2.L
									{
										OFFSET 0.029895 0.000779 0.002385
										CHANNELS 3 Xrotation Yrotation Zrotation
										JOINT Index3.L
										{
											OFFSET 0.021923 0.000571 0.001749
											CHANNELS 3 Xrotation Yrotation Zrotation
											End Site
											{
												OFFSET 0.017937 0.000468 0.001431
											}
										}
									}
								}
								JOINT Middle1.L
								{
									OFFSET 0.119580 0.003117 0.009538
									CHANNELS 3 Xrotation Yrotation Zrotation
									JOINT Middle2.L
									{
										OFFSET 0.030891 0.000805 0.002464
										CHANNELS 3 Xrotation Yrotation Zrotation
										JOINT Middle3.L
										{
											OFFSET 0.021923 0.000571 0.001749
											CHANNELS 3 Xrotation Yrotation Zrotation
											End Site
											{
												OFFSET 0.017937 0.000468 0.001431
											}
										}
									}
								}
								JOINT Ring1.L
								{
									OFFSET 0.101580 0.003117 0.009538
									CHANNELS 3 Xrotation Yrotation Zrotation
									JOINT Ring2.L
									{
										OFFSET 0.028898 0.000753 0.002305
										CHANNELS 3 Xrotation Yrotation Zrotation
										JOINT Ring3.L
										{
											OFFSET 0.019930 0.000520 0.001590
											CHANNELS 3 Xrotation Yrotation Zrotation
											End Site
											{
												OFFSET 0.016940 0.000442 0.001351
											}
										}
									}
								}
								JOINT Pinky1.L
								{
									OFFSET 0.085580 0.003117 0.009538
									CHANNELS 3 Xrotation Yrotation Zrotation
									JOINT Pinky2.L
									{
										OFFSET 0.023916 0.000623 0.001908
										CHANNELS 3 Xrotation Yrotation Zrotation
										JOINT Pinky3.L
										{
											OFFSET 0.016940 0.000442 0.001351
											CHANNELS 3 Xrotation Yrotation Zrotation
											End Site
											{
												OFFSET 0.013951 0.000364 0.001113
											}
										}
									}
								}
							}
						}
					}
				}
				JOINT Clavicle.R
				{
					OFFSET -0.040680 0.014714 0.083063
					CHANNELS 3 Xrotation Yrotation Zrotation
					JOINT UpperArm.R
					{
						OFFSET -0.090243 0.009338 0.056854
						CHANNELS 3 Xrotation Yrotation Zrotation
						JOINT ForeArm.R
						{
							OFFSET -0.278967 0.022272 -0.043380
							CHANNELS 3 Xrotation Yrotation Zrotation
							JOINT Hand.R
							{
								OFFSET -0.258090 0.019232 -0.003477
								CHANNELS 3 Xrotation Yrotation Zrotation
								JOINT Thumb1.R
								{
									OFFSET -0.154657 0.008916 -0.001612
									CHANNELS 3 Xrotation Yrotation Zrotation
									JOINT Thumb2.R
									{
										OFFSET -0.029914 0.002229 -0.000403
										CHANNELS 3 Xrotation Yrotation Zrotation
										End Site
										{
											OFFSET -0.024929 0.001858 -0.000336
										}
									}
								}
								JOINT Index1.R
								{
									OFFSET -0.137657 0.008916 -0.001612
									CHANNELS 3 Xrotation Yrotation Zrotation
									JOINT Index2.R
									{
										OFFSET -0.029914 0.002229 -0.000403
										CHANNELS 3 Xrotation Yrotation Zrotation
										JOINT Index3.R
										{
											OFFSET -0.021937 0.001635 -0.000296
											CHANNELS 3 Xrotation Yrotation Zrotation
											End Site
											{
												OFFSET -0.017949 0.001337 -0.000242
											}
										}
									}
								}
								JOINT Middle1.R
								{
									OFFSET -0.119657 0.008916 -0.001612
									CHANNELS 3 Xrotation Yrotation Zrotation
									JOINT Middle2.R
									{
										OFFSET -0.030912 0.002303 -0.000416
										CHANNELS 3 Xrotation Yrotation Zrotation
										JOINT Middle3.R
										{
											OFFSET -0.021937 0.001635 -0.000296
											CHANNELS 3 Xrotation Yrotation Zrotation
											End Site
											{
												OFFSET -0.017949 0.001337 -0.000242
											}
										}
									}
								}
								JOINT Ring1.R
								{
									OFFSET -0.101657 0.008916 -0.001612
									CHANNELS 3 Xrotation Yrotation Zrotation
									JOINT Ring2.R
									{
										OFFSET -0.028917 0.002155 -0.000390
										CHANNELS 3 Xrotation Yrotation Zrotation
										JOINT Ring3.R
										{
											OFFSET -0.019943 0.001486 -0.000269
											CHANNELS 3 Xrotation Yrotation Zrotation
											End Site
											{
												OFFSET -0.016951 0.001263 -0.000228
											}
										}
									}
								}
								JOINT Pinky1.R
								{
									OFFSET -0.085657 0.008916 -0.001612
									CHANNELS 3 Xrotation Yrotation Zrotation
									JOINT Pinky2.R
									{
										OFFSET -0.023931 0.001783 -0.000322
										CHANNELS 3 Xrotation Yrotation Zrotation
										JOINT Pinky3.R
										{
											OFFSET -0.016951 0.001263 -0.000228
											CHANNELS 3 Xrotation Yrotation Zrotation
											End Site
											{
												OFFSET -0.013960 0.001040 -0.000188
											}
										}
									}
								}
							}
						}
					}
				}
			}
		}
	}
}
MOTION
Frames: 4
Frame Time: 0.03333333
-0.002833 -0.035127 1.321577 -5.111536 0.934242 1.052597 -0.837434 1.662825 -0.527066 9.602859 0.555141 -4.119707 -3.340212 2.927394 9.115542 1.574913 -3.970648 0.124360 -3.622270 -0.967218 0.747567 13.219273 0.970253 -1.145361 -0.222606 -3.929946 -6.303909 1.061687 -0.826432 -0.774532 3.797103 1.253457 2.446175 7.386516 -4.908834 -3.228528 -10.617843 2.598580 1.466856 13.232544 3.154801 0.882339 8.195136 -2.299507 5.431140 7.840504 17.581550 1.457764 22.984930 49.453200 -27.844263 17.417389 -2.653286 -24.947834 4.228472 4.020200 -10.188843 0.000000 0.000000 0.000000 0.000000 0.000000 0.000000 0.000000 0.000000 0.000000 0.000000 0.000000 0.000000 0.000000 0.000000 0.000000 0.000000 0.000000 0.000000 0.000000 0.000000 0.000000 0.000000 0.000000 0.000000 0.000000 0.000000 0.000000 0.000000 0.000000 0.000000 0.000000 0.000000 0.000000 0.000000 0.000000 0.000000 0.000000 0.000000 0.000000 0.000000 0.000000 0.000000 5.029696 -9.336721 1.238371 34.340932 -55.236757 33.107882 13.883994 2.866277 26.100507 -2.809634 -5.688655 3.963450 0.000000 0.000000 0.000000 0.000000 0.000000 0.000000 0.000000 0.000000 0.000000 0.000000 0.000000 0.000000 0.000000 0.000000 0.000000 0.000000 0.000000 0.000000 0.000000 0.000000 0.000000 0.000000 0.000000 0.000000 0.000000 0.000000 0.000000 0.000000 0.000000 0.000000 0.000000 0.000000 0.000000 0.000000 0.000000 0.000000 0.000000 0.000000 0.000000 0.000000 0.000000 0.000000
-0.002298 -0.034606 1.321576 -5.064489 0.950931 1.100431 -0.746545 1.697572 -0.542438 9.349992 0.462480 -4.064906 -3.311826 2.897410 9.145585 1.594454 -3.948184 0.154823 -3.584368 -1.029995 0.816317 13.068733 0.995122 -1.134053 -0.165396 -3.941030 -6.357550 1.068498 -0.775735 -0.753848 3.802998 1.278452 2.436252 7.399197 -4.950910 -3.215189 -10.647776 2.607874 1.464858 13.154902 3.133305 0.881531 8.186975 -2.278349 5.482516 7.771303 17.638938 1.591298 22.980502 49.480684 -27.802561 17.411199 -2.741586 -24.869407 4.277722 4.283515 -10.119362 0.000000 0.000000 0.000000 0.000000 0.000000 0.000000 0.000000 0.000000 0.000000 0.000000 0.000000 0.000000 0.000000 0.000000 0.000000 0.000000 0.000000 0.000000 0.000000 0.000000 0.000000 0.000000 0.000000 0.000000 0.000000 0.000000 0.000000 0.000000 0.000000 0.000000 0.000000 0.000000 0.000000 0.000000 0.000000 0.000000 0.000000 0.000000 0.000000 0.000000 0.000000 0.000000 5.014058 -9.436520 1.157977 34.437817 -55.188063 33.156787 13.911125 2.927760 26.135979 -2.669205 -5.854097 3.924322 0.000000 0.000000 0.000000 0.000000 0.000000 0.000000 0.000000 0.000000 0.000000 0.000000 0.000000 0.000000 0.000000 0.000000 0.000000 0.000000 0.000000 0.000000 0.000000 0.000000 0.000000 0.000000 0.000000 0.000000 0.000000 0.000000 0.000000 0.000000 0.000000 0.000000 0.000000 0.000000 0.000000 0.000000 0.000000 0.000000 0.000000 0.000000 0.000000 0.000000 0.000000 0.000000
-0.001671 -0.034737 1.321474 -5.034766 0.944316 1.092817 -0.735743 1.702212 -0.530258 9.229268 0.450470 -4.055908 -3.246492 2.889397 9.124585 1.594305 -3.901160 0.166534 -3.634392 -1.053701 0.879653 13.086216 0.990853 -1.112668 -0.171834 -3.909260 -6.373348 1.054348 -0.691662 -0.728894 3.790204 1.308983 2.427366 7.521138 -5.021956 -3.187739 -10.806433 2.621355 1.480876 13.241688 3.140850 0.891857 8.185110 -2.268168 5.518681 7.854523 17.726054 1.625619 22.942157 49.419725 -27.749815 17.445202 -2.796588 -24.908113 4.405529 4.421804 -10.064264 0.000000 0.000000 0.000000 0.000000 0.000000 0.000000 0.000000 0.000000 0.000000 0.000000 0.000000 0.000000 0.000000 0.000000 0.000000 0.000000 0.000000 0.000000 0.000000 0.000000 0.000000 0.000000 0.000000 0.000000 0.000000 0.000000 0.000000 0.000000 0.000000 0.000000 0.000000 0.000000 0.000000 0.000000 0.000000 0.000000 0.000000 0.000000 0.000000 0.000000 0.000000 0.000000 5.096096 -9.536444 1.147703 34.336581 -55.134268 33.105066 13.927718 2.966484 26.194575 -2.527598 -5.936422 3.882218 0.000000 0.000000 0.000000 0.000000 0.000000 0.000000 0.000000 0.000000 0.000000 0.000000 0.000000 0.000000 0.000000 0.000000 0.000000 0.000000 0.000000 0.000000 0.000000 0.000000 0.000000 0.000000 0.000000 0.000000 0.000000 0.000000 0.000000 0.000000 0.000000 0.000000 0.000000 0.000000 0.000000 0.000000 0.000000 0.000000 0.000000 0.000000 0.000000 0.000000 0.000000 0.000000
-0.001288 -0.034449 1.321251 -4.990118 0.921059 1.072798 -0.756531 1.722154 -0.542784 9.174041 0.474858 -4.017305 -3.197919 2.858849 9.107697 1.578656 -3.868420 0.178170 -3.704839 -1.052427 0.942884 13.147331 0.993450 -1.097398 -0.194392 -3.848930 -6.404500 1.035256 -0.642492 -0.697961 3.754257 1.339439 2.423401 7.609409 -5.061294 -3.168210 -10.873616 2.629864 1.487851 13.253301 3.132556 0.882121 8.178069 -2.275785 5.541615 7.890700 17.783023 1.659352 22.962846 49.389990 -27.732456 17.407200 -2.821485 -24.945048 4.440602 4.587596 -10.038420 0.000000 0.000000 0.000000 0.000000 0.000000 0.000000 0.000000 0.000000 0.000000 0.000000 0.000000 0.000000 0.000000 0.000000 0.000000 0.000000 0.000000 0.000000 0.000000 0.000000 0.000000 0.000000 0.000000 0.000000 0.000000 0.000000 0.000000 0.000000 0.000000 0.000000 0.000000 0.000000 0.000000 0.000000 0.000000 0.000000 0.000000 0.000000 0.000000 0.000000 0.000000 0.000000 5.144525 -9.622180 1.156560 34.273012 -55.060705 33.036173 13.904175 2.997602 26.284305 -2.437755 -6.012578 3.857839 0.000000 0.000000 0.000000 0.000000 0.000000 0.000000 0.000000 0.000000 0.000000 0.000000 0.000000 0.000000 0.000000 0.000000 0.000000 0.000000 0.000000 0.000000 0.000000 0.000000 0.000000 0.000000 0.000000 0.000000 0.000000 0.000000 0.000000 0.000000 0.000000 0.000000 0.000000 0.000000 0.000000 0.000000 0.000000 0.000000 0.000000 0.000000 0.000000 0.000000 0.000000 0.000000
